<svg xmlns="http://www.w3.org/2000/svg" viewBox="0 0 40 40" fill="none" aria-label="Johnny Devils logo">
  <!-- Flame shape -->
  <path d="M20 4 C20 4 14 10 14 17 C14 21 16 24 18 25 C17 22 18 19 20 18 C22 19 23 22 22 25 C24 24 26 21 26 17 C26 10 20 4 20 4Z" fill="#C8893A"/>
  <!-- Inner flame -->
  <path d="M20 10 C20 10 17 14 17 18 C17 20 18 22 19 23 C19 21 19.5 20 20 19 C20.5 20 21 21 21 23 C22 22 23 20 23 18 C23 14 20 10 20 10Z" fill="#8B3A2A"/>
  <!-- Base/horns suggestion -->
  <path d="M13 28 L14.5 24 L16 27 L20 25 L24 27 L25.5 24 L27 28 C27 30 25 33 20 33 C15 33 13 30 13 28Z" fill="#C8893A"/>
  <!-- Crown / horns -->
  <path d="M14 28 L12 22 L16 26 M26 28 L28 22 L24 26" stroke="#C8893A" stroke-width="1.5" stroke-linecap="round" fill="none"/>
</svg>
